<?xml version="1.0" standalone="no"?><!DOCTYPE svg PUBLIC "-//W3C//DTD SVG 1.1//EN" "http://www.w3.org/Graphics/SVG/1.1/DTD/svg11.dtd"><svg id="unorderedPie" width="380" height="380" version="1.1" xmlns="http://www.w3.org/2000/svg" xmlns:xlink="http://www.w3.org/1999/xlink"><defs xmlns="http://www.w3.org/1999/xhtml"><style type="text/css"><![CDATA[
#planet { font-family: Oswald, serif; }
svg { margin-right: 10px; margin-left: 10px; font-style: normal; font-variant: normal; font-weight: normal; font-stretch: normal; font-size: 14px; line-height: normal; font-family: sans-serif; stroke: black; fill: white; }]]></style></defs><g class="arc" transform="translate(190,190)"><path d="M122.10122023649518,118.28479199271095A170,170 0 0,1 -162.42380281459916,50.18474149823038L0,0Z"/><text transform="translate(-19.785612738677738,82.6651651456348)" text-anchor="middle" stroke="black" fill="black"/></g><g class="arc" transform="translate(190,190)"><path d="M-162.42380281459916,50.18474149823038A170,170 0 0,1 2.300755227610655,-169.98443024401564L0,0Z"/><text transform="translate(-68.05964964381043,-50.92037009254522)" text-anchor="middle" stroke="black" fill="black">A</text></g><g class="arc" transform="translate(190,190)"><path d="M2.300755227610655,-169.98443024401564A170,170 0 0,1 64.68458535097366,-157.2129270065684L0,0Z"/><text transform="translate(17.04799685332026,-83.27283952939987)" text-anchor="middle" stroke="black" fill="black"/></g><g class="arc" transform="translate(190,190)"><path d="M64.68458535097366,-157.2129270065684A170,170 0 0,1 166.5727778029844,33.96335812309466L0,0Z"/><text transform="translate(75.01180740760913,-39.97785323705811)" text-anchor="middle" stroke="black" fill="black">B</text></g><g class="arc" transform="translate(190,190)"><path d="M166.5727778029844,33.96335812309466A170,170 0 0,1 122.477373566463,117.89526268795142L0,0Z"/><text transform="translate(75.24732329565978,39.53277547603326)" text-anchor="middle" stroke="black" fill="black"/></g></svg>