<?xml version="1.0" standalone="no"?><!DOCTYPE svg PUBLIC "-//W3C//DTD SVG 1.1//EN" "http://www.w3.org/Graphics/SVG/1.1/DTD/svg11.dtd"><svg id="unorderedPie" width="380" height="380" version="1.1" xmlns="http://www.w3.org/2000/svg" xmlns:xlink="http://www.w3.org/1999/xlink"><defs xmlns="http://www.w3.org/1999/xhtml"><style type="text/css"><![CDATA[
#planet { font-family: Oswald, serif; }
svg { margin-right: 10px; margin-left: 10px; font-style: normal; font-variant: normal; font-weight: normal; font-stretch: normal; font-size: 14px; line-height: normal; font-family: sans-serif; stroke: black; fill: white; }]]></style></defs><g class="arc" transform="translate(190,190)"><path d="M-167.2890017017513,-30.23888076023073A170,170 0 0,1 8.909194671331663,-169.76638728060487L0,0Z"/><text transform="translate(-52.76841405541885,-66.63703533378323)" text-anchor="middle" stroke="black" fill="black">B</text></g><g class="arc" transform="translate(190,190)"><path d="M8.909194671331663,-169.76638728060487A170,170 0 0,1 70.74919356002383,-154.57862598239862L0,0Z"/><text transform="translate(20.273330555295765,-82.54690828974584)" text-anchor="middle" stroke="black" fill="black"/></g><g class="arc" transform="translate(190,190)"><path d="M70.74919356002383,-154.57862598239862A170,170 0 0,1 44.22288325598365,164.14730152070013L0,0Z"/><text transform="translate(84.7071408257948,7.049843481877401)" text-anchor="middle" stroke="black" fill="black"/></g><g class="arc" transform="translate(190,190)"><path d="M44.22288325598365,164.14730152070013A170,170 0 0,1 -89.32569975624403,144.64065598253262L0,0Z"/><text transform="translate(-12.28508566414959,84.10753040141238)" text-anchor="middle" stroke="black" fill="black"/></g><g class="arc" transform="translate(190,190)"><path d="M-89.32569975624403,144.64065598253262A170,170 0 0,1 -167.38447299126236,-29.705861398676195L0,0Z"/><text transform="translate(-77.57932267807044,34.733970300151775)" text-anchor="middle" stroke="black" fill="black">A</text></g></svg>