<?xml version="1.0" standalone="no"?><!DOCTYPE svg PUBLIC "-//W3C//DTD SVG 1.1//EN" "http://www.w3.org/Graphics/SVG/1.1/DTD/svg11.dtd"><svg id="unorderedPie" width="380" height="380" version="1.1" xmlns="http://www.w3.org/2000/svg" xmlns:xlink="http://www.w3.org/1999/xlink"><defs xmlns="http://www.w3.org/1999/xhtml"><style type="text/css"><![CDATA[
#planet { font-family: Oswald, serif; }
svg { margin-right: 10px; margin-left: 10px; font-style: normal; font-variant: normal; font-weight: normal; font-stretch: normal; font-size: 14px; line-height: normal; font-family: sans-serif; stroke: black; fill: white; }]]></style></defs><g class="arc" transform="translate(190,190)"><path d="M143.79517794738155,90.68046536647721A170,170 0 0,1 -90.5659286735143,143.86734363122133L0,0Z"/><text transform="translate(18.811892843704296,82.8921750688024)" text-anchor="middle" stroke="black" fill="black"/></g><g class="arc" transform="translate(190,190)"><path d="M-90.5659286735143,143.86734363122133A170,170 0 0,1 -168.7479968595547,-20.594017478086105L0,0Z"/><text transform="translate(-76.76720135957156,36.493791189995505)" text-anchor="middle" stroke="black" fill="black"/></g><g class="arc" transform="translate(190,190)"><path d="M-168.7479968595547,-20.594017478086105A170,170 0 0,1 -82.59767673664804,-148.58540910098873L0,0Z"/><text transform="translate(-70.51437972370252,-47.46285128583714)" text-anchor="middle" stroke="black" fill="black">B</text></g><g class="arc" transform="translate(190,190)"><path d="M-82.59767673664804,-148.58540910098873A170,170 0 0,1 9.827865200871832,-169.71568302780238L0,0Z"/><text transform="translate(-18.943887449475938,-82.86210912293741)" text-anchor="middle" stroke="black" fill="black"/></g><g class="arc" transform="translate(190,190)"><path d="M9.827865200871832,-169.71568302780238A170,170 0 0,1 144.083293110922,90.2219742984609L0,0Z"/><text transform="translate(75.52161542777999,-39.00622518494328)" text-anchor="middle" stroke="black" fill="black">A</text></g></svg>