<?xml version="1.0" standalone="no"?><!DOCTYPE svg PUBLIC "-//W3C//DTD SVG 1.1//EN" "http://www.w3.org/Graphics/SVG/1.1/DTD/svg11.dtd"><svg id="unorderedPie" width="380" height="380" version="1.1" xmlns="http://www.w3.org/2000/svg" xmlns:xlink="http://www.w3.org/1999/xlink"><defs xmlns="http://www.w3.org/1999/xhtml"><style type="text/css"><![CDATA[
#planet { font-family: Oswald, serif; }
svg { margin-right: 10px; margin-left: 10px; font-style: normal; font-variant: normal; font-weight: normal; font-stretch: normal; font-size: 14px; line-height: normal; font-family: sans-serif; stroke: black; fill: white; }]]></style></defs><g class="arc" transform="translate(190,190)"><path d="M-139.71250837177257,-96.85254258132504A170,170 0 0,1 169.36841541848565,-14.640350358897509L0,0Z"/><text transform="translate(21.849366942746713,-82.14380782628236)" text-anchor="middle" stroke="black" fill="black"/></g><g class="arc" transform="translate(190,190)"><path d="M169.36841541848565,-14.640350358897509A170,170 0 0,1 35.87414845268286,166.1717348792955L0,0Z"/><text transform="translate(68.38197870811537,50.48668129282074)" text-anchor="middle" stroke="black" fill="black">B</text></g><g class="arc" transform="translate(190,190)"><path d="M35.87414845268286,166.1717348792955A170,170 0 0,1 -113.28891427198154,126.75023433144263L0,0Z"/><text transform="translate(-21.718512656690518,82.17850210353784)" text-anchor="middle" stroke="black" fill="black"/></g><g class="arc" transform="translate(190,190)"><path d="M-113.28891427198154,126.75023433144263A170,170 0 0,1 -146.89851141880612,85.56183344774051L0,0Z"/><text transform="translate(-65.85684325440091,53.738963486145394)" text-anchor="middle" stroke="black" fill="black">A</text></g><g class="arc" transform="translate(190,190)"><path d="M-146.89851141880612,85.56183344774051A170,170 0 0,1 -140.02030417566922,-96.4070247365464L0,0Z"/><text transform="translate(-84.93934309664371,-3.21060653314063)" text-anchor="middle" stroke="black" fill="black"/></g></svg>