<?xml version="1.0" standalone="no"?><!DOCTYPE svg PUBLIC "-//W3C//DTD SVG 1.1//EN" "http://www.w3.org/Graphics/SVG/1.1/DTD/svg11.dtd"><svg id="unorderedPie" width="380" height="380" version="1.1" xmlns="http://www.w3.org/2000/svg" xmlns:xlink="http://www.w3.org/1999/xlink"><defs xmlns="http://www.w3.org/1999/xhtml"><style type="text/css"><![CDATA[
#planet { font-family: Oswald, serif; }
svg { margin-right: 10px; margin-left: 10px; font-style: normal; font-variant: normal; font-weight: normal; font-stretch: normal; font-size: 14px; line-height: normal; font-family: sans-serif; stroke: black; fill: white; }]]></style></defs><g class="arc" transform="translate(190,190)"><path d="M132.21771857008028,-106.85726412426554A170,170 0 0,1 167.33451386165234,-29.98600458021187L0,0Z"/><text transform="translate(77.31458889608255,-35.319319696587435)" text-anchor="middle" stroke="black" fill="black">A</text></g><g class="arc" transform="translate(190,190)"><path d="M167.33451386165234,-29.98600458021187A170,170 0 0,1 98.45919349728591,138.58494584861666L0,0Z"/><text transform="translate(78.68547364352244,32.149591560306554)" text-anchor="middle" stroke="black" fill="black"/></g><g class="arc" transform="translate(190,190)"><path d="M98.45919349728591,138.58494584861666A170,170 0 0,1 -158.6605260903307,61.04782928769449L0,0Z"/><text transform="translate(-24.541043287929426,81.38020148869117)" text-anchor="middle" stroke="black" fill="black"/></g><g class="arc" transform="translate(190,190)"><path d="M-158.6605260903307,61.04782928769449A170,170 0 0,1 -98.67978634238916,-138.4279587634681L0,0Z"/><text transform="translate(-81.39971837389943,-24.47623027857557)" text-anchor="middle" stroke="black" fill="black"/></g><g class="arc" transform="translate(190,190)"><path d="M-98.67978634238916,-138.4279587634681A170,170 0 0,1 131.8766751831159,-107.27787536415393L0,0Z"/><text transform="translate(11.380798314726718,-84.23465693952528)" text-anchor="middle" stroke="black" fill="black">B</text></g></svg>