<?xml version="1.0" standalone="no"?><!DOCTYPE svg PUBLIC "-//W3C//DTD SVG 1.1//EN" "http://www.w3.org/Graphics/SVG/1.1/DTD/svg11.dtd"><svg id="unorderedPie" width="380" height="380" version="1.1" xmlns="http://www.w3.org/2000/svg" xmlns:xlink="http://www.w3.org/1999/xlink"><defs xmlns="http://www.w3.org/1999/xhtml"><style type="text/css"><![CDATA[
#planet { font-family: Oswald, serif; }
svg { margin-right: 10px; margin-left: 10px; font-style: normal; font-variant: normal; font-weight: normal; font-stretch: normal; font-size: 14px; line-height: normal; font-family: sans-serif; stroke: black; fill: white; }]]></style></defs><g class="arc" transform="translate(190,190)"><path d="M92.89036668731977,-142.37759576806766A170,170 0 0,1 161.04189933915953,54.45646570643388L0,0Z"/><text transform="translate(80.32171386286622,-27.810470728339787)" text-anchor="middle" stroke="black" fill="black"/></g><g class="arc" transform="translate(190,190)"><path d="M161.04189933915953,54.45646570643388A170,170 0 0,1 -138.60460869183092,98.43151146550795L0,0Z"/><text transform="translate(12.342094284159595,84.0991837575188)" text-anchor="middle" stroke="black" fill="black"/></g><g class="arc" transform="translate(190,190)"><path d="M-138.60460869183092,98.43151146550795A170,170 0 0,1 -162.22973611913955,50.808589025029534L0,0Z"/><text transform="translate(-76.1451105454323,37.77462296335853)" text-anchor="middle" stroke="black" fill="black">A</text></g><g class="arc" transform="translate(190,190)"><path d="M-162.22973611913955,50.808589025029534A170,170 0 0,1 -153.06954111298558,-73.95752553635101L0,0Z"/><text transform="translate(-84.77183257347485,-6.223857496339994)" text-anchor="middle" stroke="black" fill="black"/></g><g class="arc" transform="translate(190,190)"><path d="M-153.06954111298558,-73.95752553635101A170,170 0 0,1 92.43637983534047,-142.6727573257651L0,0Z"/><text transform="translate(-22.910373368839146,-81.85422892007709)" text-anchor="middle" stroke="black" fill="black">B</text></g></svg>