<?xml version="1.0" standalone="no"?><!DOCTYPE svg PUBLIC "-//W3C//DTD SVG 1.1//EN" "http://www.w3.org/Graphics/SVG/1.1/DTD/svg11.dtd"><svg id="unorderedPie" width="380" height="380" version="1.1" xmlns="http://www.w3.org/2000/svg" xmlns:xlink="http://www.w3.org/1999/xlink"><defs xmlns="http://www.w3.org/1999/xhtml"><style type="text/css"><![CDATA[
#planet { font-family: Oswald, serif; }
svg { margin-right: 10px; margin-left: 10px; font-style: normal; font-variant: normal; font-weight: normal; font-stretch: normal; font-size: 14px; line-height: normal; font-family: sans-serif; stroke: black; fill: white; }]]></style></defs><g class="arc" transform="translate(190,190)"><path d="M81.70447129191255,149.0784336210608A170,170 0 0,1 -158.05842294231732,-62.59021438681559L0,0Z"/><text transform="translate(-56.25474562321089,63.72129624284048)" text-anchor="middle" stroke="black" fill="black"/></g><g class="arc" transform="translate(190,190)"><path d="M-158.05842294231732,-62.59021438681559A170,170 0 0,1 -81.94179787047352,-148.94811768449597L0,0Z"/><text transform="translate(-63.76607319539126,-56.20398481638116)" text-anchor="middle" stroke="black" fill="black">A</text></g><g class="arc" transform="translate(190,190)"><path d="M-81.94179787047352,-148.94811768449597A170,170 0 0,1 72.26386488302312,-153.8763589124989L0,0Z"/><text transform="translate(-2.715119110082564,-84.95662498132835)" text-anchor="middle" stroke="black" fill="black"/></g><g class="arc" transform="translate(190,190)"><path d="M72.26386488302312,-153.8763589124989A170,170 0 0,1 123.81264659931004,-116.4921823217093L0,0Z"/><text transform="translate(49.90213861552737,-68.80971269811184)" text-anchor="middle" stroke="black" fill="black">B</text></g><g class="arc" transform="translate(190,190)"><path d="M123.81264659931004,-116.4921823217093A170,170 0 0,1 82.17891659998342,148.81742393433967L0,0Z"/><text transform="translate(83.97235827975932,13.177368665091558)" text-anchor="middle" stroke="black" fill="black"/></g></svg>